<?xml version="1.0" standalone="no"?>
<!DOCTYPE svg PUBLIC "-//W3C//DTD SVG 20010904//EN"
 "http://www.w3.org/TR/2001/REC-SVG-20010904/DTD/svg10.dtd">
<svg version="1.0" xmlns="http://www.w3.org/2000/svg"
 width="300.000000pt" height="63.000000pt" viewBox="0 0 300.000000 63.000000"
 preserveAspectRatio="xMidYMid meet">
<metadata>
Created by potrace 1.10, written by Peter Selinger 2001-2011
</metadata>
<g transform="translate(0.000000,63.000000) scale(0.100000,-0.100000)"
fill="#000000" stroke="none">
<path d="M956 608 c-25 -39 -38 -118 -38 -238 -1 -129 11 -185 47 -228 21 -26
24 -36 19 -76 l-7 -46 -81 0 -82 0 -11 71 c-9 57 -8 76 3 97 29 56 10 273 -31
351 -10 20 -23 31 -37 31 -30 0 -126 -102 -162 -171 l-29 -54 -101 0 -101 0
-25 49 c-29 59 -138 176 -162 176 -58 0 -111 -265 -74 -370 13 -37 14 -56 4
-112 l-11 -67 -41 -4 c-22 -2 629 -3 1449 -3 820 0 1456 2 1415 5 l-74 6 -16
40 c-8 23 -28 63 -44 89 -25 41 -29 57 -27 112 2 72 -13 169 -36 226 -11 28
-21 38 -38 38 -31 0 -96 -50 -139 -106 l-36 -47 -151 1 c-147 1 -152 1 -167
24 -68 102 -166 157 -192 108 -19 -36 -41 -172 -39 -242 2 -62 -1 -73 -34
-127 -21 -32 -37 -65 -37 -73 -1 -34 -27 -48 -87 -48 l-60 0 -6 42 c-4 29 -1
48 8 58 51 56 73 198 55 345 -18 147 -49 187 -119 150 -43 -22 -136 -137 -174
-215 l-32 -66 -105 1 -105 0 -38 77 c-50 102 -159 218 -205 218 -22 0 -36 -7
-46 -22z m124 -47 c59 -61 118 -150 140 -212 l13 -37 81 5 c45 3 98 1 119 -5
30 -9 37 -8 37 4 0 24 55 126 104 190 52 70 108 117 134 112 40 -8 67 -148 59
-300 -6 -106 -26 -165 -64 -183 -16 -8 -19 -15 -12 -26 5 -8 9 -31 9 -51 l0
-38 -75 0 -74 0 24 25 c30 30 32 64 4 99 -29 36 -99 37 -134 1 -29 -29 -33
-79 -8 -107 15 -17 12 -18 -88 -18 -96 0 -102 1 -81 16 29 20 31 85 2 114 -75
75 -205 -10 -140 -93 12 -15 28 -27 37 -27 11 0 7 7 -11 21 -63 50 -9 135 70
109 38 -13 54 -35 54 -74 0 -44 -36 -58 -166 -64 l-116 -5 4 44 c3 24 8 53 13
63 7 16 5 18 -8 13 -26 -10 -57 44 -69 120 -17 111 2 311 34 351 20 24 51 11
108 -47z m-863 -53 c46 -48 116 -157 109 -173 -2 -6 40 -10 120 -10 95 0 124
3 124 13 0 40 104 185 147 205 21 9 27 8 39 -8 47 -64 66 -311 28 -350 -11
-11 -11 -24 1 -81 8 -38 15 -72 15 -75 0 -4 -104 -7 -231 -7 -231 -1 -231 -1
-210 19 25 23 27 49 6 88 -16 33 -33 41 -80 41 -61 0 -90 -86 -43 -130 l22
-20 -82 0 -82 0 0 28 c0 16 7 51 15 78 8 27 15 50 15 52 0 1 -7 2 -15 2 -21 0
-29 58 -22 164 5 78 12 110 42 194 9 24 41 12 82 -30z m1860 -25 c34 -25 100
-110 96 -124 -2 -5 18 -5 45 -1 61 9 162 9 235 -1 32 -4 56 -3 53 1 -9 14 86
123 124 143 27 15 37 16 46 6 24 -26 36 -86 40 -197 4 -111 5 -117 41 -175 49
-81 50 -83 25 -61 -12 11 -25 16 -29 12 -5 -4 -1 -11 8 -16 9 -5 27 -18 40
-29 l24 -20 -237 -1 c-171 0 -238 3 -238 11 0 7 10 27 21 46 25 40 19 57 -6
19 -21 -31 -31 -33 -40 -6 -3 11 -13 20 -22 20 -12 0 -9 -8 11 -34 14 -19 26
-39 26 -45 0 -8 -77 -11 -242 -11 l-243 1 38 32 c20 18 37 36 37 41 0 5 -9 1
-20 -9 -31 -28 -33 -13 -4 26 49 65 55 85 58 202 5 142 27 213 64 200 9 -3 31
-17 49 -30z m-1783 -333 c-42 -17 -38 -110 5 -110 31 0 44 26 38 73 -5 38 -4
40 9 23 21 -29 18 -83 -5 -96 -50 -26 -111 4 -111 55 0 31 33 65 63 64 22 0
22 0 1 -9z m1264 -6 c32 -22 30 -78 -4 -100 -79 -53 -165 26 -99 91 28 29 70
32 103 9z"/>
<path d="M1014 588 c16 -12 48 -48 72 -81 49 -66 52 -87 28 -179 -8 -33 -13
-67 -11 -77 5 -22 10 -8 33 93 l17 79 -23 45 c-28 53 -110 142 -131 142 -8 -1
-2 -10 15 -22z"/>
<path d="M1642 561 c-27 -28 -58 -70 -71 -96 -23 -45 -23 -45 -5 -128 9 -45
21 -86 25 -92 13 -14 11 23 -6 85 -8 30 -15 68 -15 84 0 32 73 142 117 175 16
11 22 21 15 21 -7 0 -34 -22 -60 -49z"/>
<path d="M1172 138 c-18 -18 -14 -56 7 -68 29 -15 39 -13 56 14 19 28 10 63
-11 45 -11 -9 -15 -8 -20 5 -7 19 -16 20 -32 4z"/>
<path d="M182 513 c38 -40 68 -94 68 -121 0 -13 -16 -53 -36 -88 -20 -35 -31
-64 -26 -64 11 0 70 102 78 136 9 36 -69 164 -99 164 -6 0 1 -12 15 -27z"/>
<path d="M693 507 c-74 -79 -80 -117 -31 -205 38 -69 37 -67 44 -59 3 3 -11
35 -31 72 -28 50 -35 72 -30 93 7 28 47 88 73 109 9 7 13 15 11 18 -3 2 -19
-10 -36 -28z"/>
<path d="M536 139 c-14 -17 -26 -39 -26 -50 0 -27 18 -59 32 -59 9 0 9 3 0 12
-32 32 3 120 38 98 8 -5 11 -13 6 -17 -5 -4 -11 -2 -13 5 -8 22 -23 2 -23 -32
0 -36 15 -56 42 -56 43 0 47 93 5 110 l-22 9 23 0 c28 1 62 -32 62 -62 0 -12
-7 -33 -16 -45 -9 -13 -11 -22 -4 -22 6 0 17 14 24 32 37 87 -67 150 -128 77z"/>
<path d="M2626 479 c-15 -12 -25 -27 -22 -35 3 -7 1 -16 -4 -19 -5 -3 -8 -20
-6 -38 2 -18 4 -38 5 -46 1 -8 9 -3 22 13 12 15 19 30 15 33 -3 3 -1 12 5 20
7 8 8 13 1 13 -5 0 -15 -7 -22 -15 -9 -11 -9 -15 -1 -15 7 0 9 -5 5 -11 -4 -8
-10 -6 -17 7 -8 14 -4 23 24 47 27 23 30 28 12 22 -14 -4 -23 -2 -23 4 0 6 11
13 25 17 14 3 25 10 25 15 0 15 -16 10 -44 -12z"/>
<path d="M2034 447 c11 -7 28 -20 38 -29 10 -10 18 -14 18 -8 0 15 -42 50 -59
49 -13 0 -12 -3 3 -12z"/>
<path d="M2049 401 c13 -10 21 -23 17 -29 -3 -5 -3 -18 1 -28 6 -15 7 -14 15
6 7 18 3 29 -13 47 -13 12 -27 23 -33 23 -6 0 0 -9 13 -19z"/>
<path d="M2030 347 c0 -30 13 -77 21 -77 15 0 10 67 -6 80 -12 10 -15 10 -15
-3z"/>
<path d="M2632 348 c-14 -14 -16 -78 -2 -78 6 0 11 8 11 18 1 9 3 29 5 45 3
31 3 32 -14 15z"/>
<path d="M2119 190 c-9 -5 -22 -23 -29 -39 -19 -47 11 -86 70 -91 68 -6 100
12 100 54 0 50 -98 103 -141 76z m41 -25 c-8 -9 -11 -30 -7 -55 6 -44 2 -47
-31 -24 -26 18 -28 50 -5 76 21 23 62 26 43 3z m80 -50 c0 -22 -17 -45 -34
-45 -7 0 -11 23 -11 54 l0 55 23 -21 c12 -12 22 -31 22 -43z"/>
<path d="M2484 190 c-27 -11 -64 -57 -64 -80 0 -30 33 -50 84 -50 86 0 124 72
64 123 -22 18 -50 21 -84 7z m84 -28 c19 -24 14 -59 -10 -76 -33 -23 -37 -20
-31 24 3 23 1 46 -6 53 -6 8 -8 16 -5 20 9 8 37 -3 52 -21z m-83 -37 c0 -55
-9 -67 -33 -43 -18 18 -14 49 10 75 12 13 22 23 22 23 1 0 1 -25 1 -55z"/>
<path d="M1506 135 c4 -8 1 -15 -5 -15 -6 0 -11 5 -11 12 0 9 -3 9 -11 1 -6
-6 -9 -23 -7 -39 6 -51 78 -41 78 10 0 12 -5 27 -12 34 -17 17 -39 15 -32 -3z"/>
</g>
</svg>
