<?xml version="1.0" standalone="no"?>
<!DOCTYPE svg PUBLIC "-//W3C//DTD SVG 20010904//EN"
 "http://www.w3.org/TR/2001/REC-SVG-20010904/DTD/svg10.dtd">
<svg version="1.0" xmlns="http://www.w3.org/2000/svg"
 width="199.000000pt" height="300.000000pt" viewBox="0 0 199.000000 300.000000"
 preserveAspectRatio="xMidYMid meet">
<metadata>
Created by potrace 1.10, written by Peter Selinger 2001-2011
</metadata>
<g transform="translate(0.000000,300.000000) scale(0.100000,-0.100000)"
fill="#000000" stroke="none">
<path d="M720 2783 c0 -4 0 -331 0 -725 0 -395 -3 -718 -8 -718 -17 0 -62 57
-62 79 0 31 -45 74 -70 66 -12 -4 -30 2 -49 16 -26 19 -33 20 -60 9 -17 -7
-33 -20 -36 -30 -3 -10 -19 -20 -35 -24 -38 -7 -58 -45 -44 -84 8 -20 7 -33
-3 -48 -18 -29 -2 -71 31 -80 16 -4 35 -23 51 -51 34 -57 160 -183 231 -230
l55 -36 -2 -366 c-1 -350 0 -366 18 -366 16 0 18 11 20 123 l1 123 77 77 c42
42 106 120 141 172 45 66 77 103 108 123 52 33 102 102 111 156 l6 38 62 7
c41 4 87 18 134 41 105 52 171 134 220 278 14 39 35 83 48 97 76 84 168 259
169 324 1 34 -4 43 -31 62 -44 29 -148 54 -231 54 l-69 0 -80 78 c-79 77 -183
142 -275 171 -30 10 -39 19 -49 49 -21 68 -77 158 -128 205 -28 26 -55 47 -61
47 -24 0 -70 -32 -108 -75 -22 -25 -41 -45 -43 -45 -2 0 -4 109 -4 242 0 223
-1 243 -17 246 -10 2 -18 0 -18 -5z m243 -456 c40 -48 101 -167 112 -214 8
-38 21 -49 39 -34 23 19 187 -71 266 -146 39 -36 70 -73 70 -83 0 -15 14 -18
118 -22 131 -6 232 -34 232 -66 -1 -51 -96 -225 -166 -301 -21 -24 -40 -58
-46 -83 -14 -63 -65 -162 -110 -213 -50 -56 -142 -102 -225 -111 l-61 -6 -20
39 c-25 48 -79 86 -152 108 -79 24 -154 53 -211 85 l-50 27 -2 196 c-2 193 -2
197 18 190 37 -11 49 -8 62 17 28 54 7 111 -48 134 l-29 12 -1 140 c-2 270 -9
238 70 316 47 47 73 67 84 62 9 -3 31 -24 50 -47z m-146 -553 c9 -23 -13 -40
-32 -24 -12 10 -13 16 -4 26 15 18 28 18 36 -2z m-304 -309 c9 -8 17 -20 19
-27 4 -10 10 -10 31 -1 31 14 53 -4 42 -36 -14 -45 199 -182 362 -233 86 -26
115 -40 144 -69 46 -46 58 -99 34 -155 -20 -49 -39 -70 -95 -106 -30 -19 -64
-57 -105 -118 -58 -85 -170 -220 -184 -220 -3 0 -6 90 -6 200 0 174 2 200 15
196 8 -3 46 -16 84 -31 45 -17 73 -22 79 -16 15 15 0 41 -24 41 -39 0 -183 76
-260 137 -82 66 -159 150 -193 210 -12 22 -31 40 -45 43 -32 7 -38 26 -12 35
25 8 27 28 6 45 -26 22 -15 55 20 58 24 2 34 10 42 32 13 33 24 37 46 15z"/>
<path d="M873 2264 c-3 -9 2 -31 11 -50 26 -56 22 -64 -32 -64 -27 0 -56 -6
-65 -12 -31 -24 -5 -34 76 -30 l77 4 0 36 c0 72 -50 159 -67 116z"/>
<path d="M1585 1723 c-39 -10 -46 -22 -29 -55 8 -16 19 -48 22 -71 6 -33 12
-42 27 -42 17 0 19 6 17 35 -2 19 -10 48 -18 64 -8 16 -14 31 -14 33 0 1 26 3
58 3 63 0 74 4 65 26 -5 14 -82 18 -128 7z"/>
<path d="M941 1591 c-10 -6 -12 -20 -8 -49 5 -29 3 -43 -8 -52 -20 -17 -48 -9
-60 18 -12 28 -45 30 -45 2 0 -28 44 -70 72 -70 15 0 29 -10 39 -29 20 -34 65
-49 87 -28 18 19 8 37 -22 37 -36 0 -52 25 -36 56 9 15 19 23 28 19 21 -8 49
3 56 21 9 22 -10 51 -44 69 -33 17 -40 18 -59 6z"/>
<path d="M1250 1493 c-24 -9 -60 -45 -60 -61 0 -7 14 -27 30 -44 27 -27 36
-30 71 -25 90 12 108 53 48 110 -28 26 -56 32 -89 20z m88 -60 c5 -17 -26 -29
-40 -15 -6 6 -7 15 -3 22 9 14 37 9 43 -7z"/>
</g>
</svg>
