<?xml version="1.0" standalone="no"?>
<!DOCTYPE svg PUBLIC "-//W3C//DTD SVG 20010904//EN"
 "http://www.w3.org/TR/2001/REC-SVG-20010904/DTD/svg10.dtd">
<svg version="1.0" xmlns="http://www.w3.org/2000/svg"
 width="300.000000pt" height="300.000000pt" viewBox="0 0 300.000000 300.000000"
 preserveAspectRatio="xMidYMid meet">
<metadata>
Created by potrace 1.10, written by Peter Selinger 2001-2011
</metadata>
<g transform="translate(0.000000,300.000000) scale(0.100000,-0.100000)"
fill="#000000" stroke="none">
<path d="M1979 2276 c-84 -30 -157 -95 -225 -203 -42 -65 -106 -199 -125 -261
l-12 -42 -73 0 c-62 0 -315 -37 -379 -55 -17 -5 -33 10 -87 82 -97 131 -250
273 -340 318 -122 60 -230 58 -303 -6 -46 -41 -59 -85 -52 -183 6 -99 31 -169
143 -413 46 -100 84 -189 84 -198 0 -24 27 -71 53 -92 23 -17 23 -20 13 -95
-10 -71 -14 -78 -45 -100 -47 -32 -90 -112 -99 -184 l-7 -59 -61 3 c-46 3 -63
0 -74 -13 -8 -9 -10 -19 -4 -25 5 -5 70 -11 144 -14 74 -3 164 -9 200 -12 93
-8 239 -5 261 6 11 6 323 10 823 10 548 0 807 3 811 10 4 6 1 18 -6 26 -10 13
-33 15 -126 12 l-113 -3 0 25 c0 14 -9 85 -20 158 -11 74 -20 158 -20 188 0
110 -23 157 -108 224 -21 16 -32 34 -32 49 0 14 16 106 37 205 31 154 36 202
37 321 1 163 -8 198 -67 262 -59 64 -149 88 -228 59z m138 -47 c124 -47 148
-215 80 -564 -20 -99 -38 -197 -42 -218 -5 -32 -10 -38 -28 -35 -12 2 -21 8
-21 13 1 6 9 65 18 132 9 68 28 164 41 215 60 229 37 361 -74 418 -44 23 -90
4 -155 -64 -134 -137 -230 -383 -184 -469 6 -12 21 -29 33 -39 21 -16 102
-113 159 -190 l27 -37 -40 -20 c-42 -22 -61 -46 -61 -79 0 -11 -6 -25 -14 -31
-24 -20 -27 -71 -9 -201 12 -95 14 -145 7 -199 l-9 -72 -77 -3 -77 -3 20 29
c16 22 18 32 9 43 -14 17 -37 9 -45 -15 -10 -32 -64 -49 -164 -51 -103 -2
-104 -1 -114 61 -4 32 -2 38 24 53 33 18 79 105 79 149 0 17 -11 35 -31 52
-25 22 -41 26 -90 26 -102 0 -178 -55 -164 -118 8 -41 60 -99 99 -113 29 -10
35 -18 38 -48 3 -20 8 -43 11 -51 6 -13 -14 -15 -153 -15 -88 0 -160 0 -160 0
0 0 4 15 9 33 13 43 -7 119 -42 165 -15 19 -50 47 -79 61 -44 22 -65 26 -140
26 -48 0 -88 2 -88 4 0 2 7 40 15 83 20 105 20 106 -11 100 -28 -5 -48 17 -60
68 -4 17 -45 113 -91 214 -102 224 -134 315 -140 401 -8 116 44 172 158 172
50 0 74 -7 134 -36 94 -47 225 -169 330 -310 72 -97 81 -107 105 -101 124 32
378 67 455 62 l39 -2 24 65 c38 107 108 241 164 315 87 115 190 160 285 124z
m15 -139 c28 -55 24 -172 -11 -310 -16 -63 -34 -163 -41 -222 -7 -58 -16 -111
-19 -116 -3 -6 -17 -13 -31 -17 -22 -5 -31 1 -67 54 -23 32 -75 94 -114 136
-70 76 -71 78 -65 121 19 142 162 380 248 413 32 12 78 -15 100 -59z m-27
-730 c3 -5 19 -7 35 -4 22 5 34 0 55 -20 14 -14 30 -26 34 -26 4 0 16 -9 26
-20 14 -15 21 -51 30 -152 7 -73 18 -160 23 -193 6 -33 13 -82 16 -110 l6 -50
-212 0 -213 0 0 130 c0 72 -4 167 -9 212 -7 63 -6 86 4 98 7 8 15 30 19 48 5
23 16 37 40 49 19 9 41 24 50 33 17 17 86 21 96 5z m-676 -280 c40 -21 31 -73
-23 -137 l-27 -33 -39 20 c-46 24 -80 64 -80 96 0 48 114 84 169 54z m-490
-83 c77 -51 107 -162 56 -212 -13 -14 -36 -25 -50 -25 -22 0 -24 3 -15 19 5
11 10 33 10 50 0 24 -4 31 -20 31 -16 0 -20 -7 -20 -30 0 -36 -43 -85 -66 -76
-9 3 -19 6 -24 6 -5 0 -6 25 -3 55 5 45 3 56 -11 61 -23 9 -27 3 -30 -51 -3
-50 -15 -65 -57 -65 -30 0 -54 23 -63 63 -10 42 -42 33 -38 -11 2 -28 -1 -32
-23 -32 -22 0 -24 3 -19 33 18 104 54 165 116 196 37 19 56 22 130 19 73 -4
92 -8 127 -31z"/>
<path d="M501 2034 c-46 -59 -24 -165 87 -416 38 -84 78 -185 90 -225 16 -51
28 -74 42 -78 28 -9 35 -2 55 52 27 70 75 142 133 196 65 60 75 79 67 127 -22
132 -288 370 -413 370 -32 0 -45 -6 -61 -26z m100 -26 c130 -44 329 -246 329
-333 0 -27 -8 -40 -41 -66 -48 -38 -135 -158 -144 -200 -9 -40 -21 -36 -30 9
-3 20 -35 102 -70 182 -114 259 -141 351 -116 399 13 24 25 26 72 9z"/>
<path d="M1407 1673 c-10 -15 11 -178 34 -267 34 -133 75 -197 126 -196 13 1
11 5 -10 16 -33 18 -69 89 -92 179 -17 69 -21 95 -31 190 -7 64 -17 94 -27 78z"/>
<path d="M1247 1653 c-4 -7 -6 -81 -5 -165 3 -203 -4 -250 -50 -300 l-36 -39
37 17 c58 28 70 70 75 259 3 154 -6 253 -21 228z"/>
<path d="M1585 1364 c-54 -58 -16 -144 63 -144 52 0 82 32 82 87 0 33 -6 46
-26 62 -38 30 -89 28 -119 -5z m113 -32 c3 -16 -2 -22 -17 -22 -24 0 -35 15
-27 36 9 23 40 13 44 -14z m-47 -54 c7 -13 6 -18 -4 -18 -25 0 -51 26 -44 45
6 14 10 15 23 4 8 -7 20 -21 25 -31z"/>
<path d="M1029 1301 c-45 -45 -34 -111 22 -135 42 -18 74 -9 105 27 31 37 27
80 -12 115 -36 31 -79 29 -115 -7z m111 -16 c15 -18 5 -35 -20 -35 -23 0 -32
13 -24 34 8 20 28 21 44 1z m-59 -47 c24 -29 24 -38 -1 -38 -21 0 -45 34 -35
50 9 15 15 13 36 -12z"/>
<path d="M1640 1186 c0 -2 18 -16 41 -32 23 -15 62 -55 87 -89 62 -82 66 -86
48 -41 -32 78 -120 166 -166 166 -5 0 -10 -2 -10 -4z"/>
<path d="M1085 1118 c-40 -20 -79 -61 -73 -77 2 -5 30 15 63 45 33 30 58 54
55 53 -3 0 -23 -9 -45 -21z"/>
<path d="M2097 1315 c-27 -26 5 -84 38 -71 20 7 19 50 -1 70 -19 20 -19 20
-37 1z"/>
<path d="M1980 1284 c-19 -22 -1 -68 27 -72 31 -5 43 41 18 68 -22 24 -29 25
-45 4z"/>
<path d="M2187 1263 c-13 -12 -7 -51 9 -67 20 -21 31 -20 44 3 20 38 -26 92
-53 64z"/>
<path d="M1927 1193 c-13 -12 -7 -51 9 -68 29 -28 56 13 38 59 -6 16 -35 22
-47 9z"/>
<path d="M2050 1165 c-38 -20 -56 -59 -42 -90 10 -22 17 -25 69 -25 74 0 127
25 131 61 7 56 -93 90 -158 54z m115 -25 c24 -27 13 -47 -32 -59 -74 -21 -104
-12 -94 27 13 49 92 69 126 32z"/>
</g>
</svg>
