<svg xmlns="http://www.w3.org/2000/svg" xmlns:xlink="http://www.w3.org/1999/xlink" width="500" zoomAndPan="magnify" viewBox="0 0 375 374.999991" height="500" preserveAspectRatio="xMidYMid meet" version="1.0"><defs><g/><clipPath id="ed81d9eac4"><path d="M 37.5 107 L 192 107 L 192 216 L 37.5 216 Z M 37.5 107 " clip-rule="nonzero"/></clipPath></defs><path fill="#d7604b" d="M 145.5 63.160156 C 145.730469 62.695312 145.964844 62.261719 146.253906 61.828125 C 146.3125 61.769531 146.34375 61.683594 146.398438 61.625 C 147.648438 59.859375 149.363281 58.640625 151.800781 57.859375 L 151.886719 57.828125 C 154.707031 56.960938 157.609375 57.308594 160.019531 58.554688 C 162.460938 59.828125 164.433594 62 165.335938 64.839844 L 165.363281 64.929688 C 166.726562 69.273438 166.003906 74.082031 164.230469 79.125 C 162.574219 83.816406 160.078125 88.683594 157.550781 93.550781 C 156.738281 95.117188 154.851562 95.726562 153.28125 94.914062 C 148.402344 92.394531 143.523438 89.871094 139.460938 87.003906 C 135.074219 83.875 131.675781 80.339844 130.28125 75.964844 L 130.253906 75.878906 C 129.382812 73.070312 129.730469 70.171875 130.980469 67.765625 C 132.257812 65.332031 134.433594 63.363281 137.28125 62.464844 L 137.308594 62.464844 C 139.835938 61.652344 142.015625 61.710938 144.105469 62.523438 C 144.222656 62.550781 144.308594 62.609375 144.425781 62.667969 C 144.804688 62.8125 145.152344 62.988281 145.5 63.160156 Z M 151.539062 65.363281 C 150.988281 66.175781 150.640625 67.390625 150.40625 68.957031 C 150.320312 69.652344 150.03125 70.347656 149.476562 70.867188 C 148.230469 72.085938 146.226562 72.054688 145.007812 70.808594 C 143.902344 69.679688 142.945312 68.867188 142.074219 68.492188 L 141.898438 68.433594 C 141.203125 68.171875 140.445312 68.144531 139.488281 68.433594 C 139.34375 68.492188 139.199219 68.550781 139.023438 68.578125 C 137.976562 68.984375 137.136719 69.738281 136.640625 70.695312 C 136.148438 71.648438 136.003906 72.75 136.292969 73.851562 C 136.351562 73.996094 136.410156 74.171875 136.4375 74.316406 C 137.398438 77.066406 139.894531 79.53125 143.175781 81.847656 C 146.109375 83.933594 149.710938 85.902344 153.398438 87.84375 C 155.316406 84.109375 157.085938 80.457031 158.277344 77.066406 C 159.585938 73.300781 160.195312 69.824219 159.410156 67.015625 C 159.351562 66.871094 159.292969 66.722656 159.265625 66.550781 C 158.859375 65.507812 158.101562 64.667969 157.144531 64.175781 C 156.1875 63.683594 155.082031 63.539062 153.980469 63.828125 C 153.835938 63.886719 153.6875 63.941406 153.515625 63.972656 C 152.644531 64.289062 152.0625 64.695312 151.65625 65.246094 Z M 151.886719 57.859375 C 152.179688 57.773438 152.46875 57.742188 152.757812 57.742188 Z M 130.28125 75.910156 C 130.195312 75.617188 130.167969 75.328125 130.167969 75.039062 Z M 130.28125 75.910156 " fill-opacity="1" fill-rule="nonzero"/><path fill="#000000" d="M 180.785156 134.894531 C 183.453125 125.015625 183.804688 124.84375 184.585938 122.84375 C 183.570312 120.234375 181.914062 114.5 179.914062 102.242188 C 176.601562 81.964844 179.011719 77.472656 179.011719 77.472656 C 179.738281 75.910156 181.625 75.214844 183.222656 75.9375 C 183.398438 76.023438 183.542969 76.109375 183.6875 76.199219 L 213.132812 96.480469 C 216.386719 96.132812 225.824219 95.089844 235.726562 94.074219 C 234.710938 76.605469 248.183594 63.21875 249.550781 61.886719 C 249.8125 61.597656 250.128906 61.363281 250.507812 61.21875 C 252.105469 60.496094 253.992188 61.21875 254.691406 62.8125 L 268.484375 93.40625 C 272.144531 94.742188 275.742188 96.914062 279.230469 99.808594 C 286.023438 105.429688 292.441406 113.804688 298.191406 123.566406 C 300.398438 127.332031 303.5625 131.851562 306.933594 136.691406 C 319.304688 154.421875 334.550781 176.324219 325.546875 193.449219 C 323.195312 197.910156 318.898438 202.371094 313.410156 206.398438 C 309.109375 209.554688 304 212.511719 298.539062 215.0625 C 298.480469 215.089844 298.425781 215.117188 298.335938 215.148438 C 292.5 217.84375 286.226562 220.042969 279.984375 221.523438 C 267.527344 224.476562 255.066406 224.5625 246.09375 219.839844 C 244.089844 218.796875 242.261719 217.496094 240.632812 215.960938 C 237.789062 214.019531 231.953125 211.351562 225.621094 210.945312 C 221.496094 210.6875 217.226562 211.382812 213.65625 214.019531 C 208.808594 217.582031 202.59375 219.785156 197.511719 219.929688 C 194.953125 219.988281 192.632812 219.550781 190.742188 218.507812 C 188.566406 217.320312 187.027344 215.464844 186.386719 212.800781 C 185.75 210.136719 186.183594 206.71875 188.042969 202.457031 C 191.324219 194.984375 196.957031 190.175781 203.058594 187.246094 C 208.808594 184.496094 215.050781 183.421875 220.101562 183.421875 C 216.355469 176.035156 213.597656 169.777344 212.058594 166.097656 C 209.765625 168.648438 208.34375 170.90625 208.34375 170.9375 C 207.414062 172.414062 205.46875 172.847656 203.984375 171.921875 C 202.503906 170.996094 202.070312 169.054688 203 167.574219 C 203.027344 167.546875 211.390625 154.277344 221.992188 152.917969 C 223.734375 152.683594 225.300781 153.929688 225.535156 155.640625 C 225.765625 157.378906 224.515625 158.941406 222.804688 159.175781 C 220.800781 159.433594 218.882812 160.363281 217.082031 161.578125 C 218.417969 164.882812 222.425781 174.355469 228.320312 185.453125 C 228.378906 185.566406 228.46875 185.683594 228.496094 185.800781 C 230.382812 189.332031 232.503906 193.042969 234.769531 196.78125 L 234.796875 196.835938 L 234.828125 196.867188 C 237.382812 201.066406 240.171875 205.269531 243.132812 209.265625 C 244.699219 211.382812 246.703125 213.03125 249.027344 214.25 C 256.519531 218.160156 267.4375 217.988281 278.53125 215.351562 C 283.816406 214.105469 289.132812 212.28125 294.15625 210.105469 C 294.386719 207.324219 294.734375 201.589844 294.445312 195.390625 C 291.078125 195.042969 285.964844 193.941406 278.9375 190.925781 C 264.796875 184.8125 262.328125 176.152344 267.207031 173.863281 C 272.085938 171.546875 279.519531 167.519531 296.480469 164.96875 C 313.4375 162.417969 309.054688 172.558594 307.804688 178.238281 C 306.671875 183.394531 304.753906 192.492188 300.746094 194.808594 C 300.980469 199.359375 300.894531 203.703125 300.71875 206.921875 C 303.972656 205.183594 306.992188 203.269531 309.691406 201.300781 C 314.453125 197.792969 318.085938 194.085938 319.972656 190.523438 C 327.203125 176.789062 313.148438 156.652344 301.734375 140.3125 C 298.367188 135.476562 295.199219 130.957031 292.734375 126.753906 C 287.332031 117.570312 281.378906 109.777344 275.191406 104.648438 C 271.941406 101.953125 268.628906 100.011719 265.347656 99 L 265.289062 98.96875 C 263.34375 98.390625 261.398438 98.160156 259.480469 98.273438 C 246.675781 99.085938 212.785156 102.882812 212.667969 102.882812 C 211.941406 102.96875 211.160156 102.792969 210.519531 102.332031 L 184.355469 84.308594 C 184.382812 87.382812 184.761719 92.539062 186.183594 101.199219 C 189.175781 119.597656 190.394531 120.757812 190.394531 120.757812 C 191.207031 121.683594 191.441406 123.074219 190.832031 124.234375 C 190.832031 124.234375 190.800781 122.089844 187.171875 135.503906 C 184.441406 141.675781 179.914062 138.167969 180.785156 134.894531 Z M 274.175781 118.238281 C 277.515625 118.238281 280.214844 122.8125 280.214844 128.464844 C 280.214844 134.113281 277.515625 138.691406 274.175781 138.691406 C 270.835938 138.691406 268.136719 134.113281 268.136719 128.464844 C 268.164062 122.8125 270.867188 118.238281 274.175781 118.238281 Z M 245.714844 124.089844 C 249.054688 124.089844 251.757812 128.667969 251.757812 134.316406 C 251.757812 139.964844 249.054688 144.542969 245.714844 144.542969 C 242.378906 144.542969 239.675781 139.964844 239.675781 134.316406 C 239.675781 128.667969 242.378906 124.089844 245.714844 124.089844 Z M 229.714844 200.605469 C 228.320312 199.675781 222.484375 196.691406 210.257812 201.996094 C 208.660156 202.691406 206.804688 201.9375 206.105469 200.34375 C 205.410156 198.75 206.164062 196.894531 207.761719 196.199219 C 215.136719 193.011719 220.917969 192.433594 225.183594 192.839844 C 224.632812 191.855469 224.109375 190.898438 223.589844 189.941406 C 219.203125 189.304688 212.234375 189.882812 205.84375 192.925781 C 200.964844 195.273438 196.492188 199.070312 193.878906 204.980469 C 192.601562 207.875 192.253906 209.960938 192.601562 211.351562 C 192.777344 212.078125 193.210938 212.597656 193.824219 212.945312 C 194.695312 213.4375 195.941406 213.640625 197.394531 213.613281 C 201.257812 213.527344 206.078125 211.757812 209.941406 208.917969 C 214.90625 205.296875 220.625 204.285156 226.085938 204.632812 C 228.496094 204.777344 230.847656 205.210938 233.054688 205.820312 C 231.894531 204.082031 230.789062 202.34375 229.714844 200.605469 Z M 229.714844 200.605469 " fill-opacity="1" fill-rule="nonzero"/><g clip-path="url(#ed81d9eac4)"><path fill="#000000" d="M 87.914062 186.117188 C 87.769531 184.378906 89.074219 182.84375 90.816406 182.726562 C 92.558594 182.582031 94.097656 183.886719 94.214844 185.625 C 94.214844 185.65625 94.679688 192.117188 97.582031 191.96875 C 101.679688 191.769531 105.28125 183.742188 105.308594 183.742188 C 106.035156 182.148438 107.921875 181.453125 109.488281 182.179688 C 110.390625 182.582031 111 183.367188 111.234375 184.234375 C 111.234375 184.265625 113.816406 193.882812 118.550781 192.957031 C 124.503906 191.769531 126.652344 186.175781 126.652344 186.148438 C 127.292969 184.523438 129.121094 183.714844 130.746094 184.351562 C 132.375 184.988281 133.1875 186.8125 132.546875 188.4375 C 132.546875 188.464844 129.148438 197.242188 119.769531 199.125 C 113.789062 200.3125 109.898438 195.96875 107.632812 191.941406 C 105.335938 194.953125 101.996094 198.082031 97.875 198.285156 C 88.753906 198.75 87.914062 186.148438 87.914062 186.117188 Z M 178.664062 203.414062 C 178.953125 205.125 177.792969 206.773438 176.050781 207.066406 C 174.335938 207.355469 172.679688 206.195312 172.390625 204.457031 C 171.605469 199.851562 170.707031 194.578125 169.75 189.015625 C 165.101562 189.679688 161.9375 190.609375 161.90625 190.609375 C 160.222656 191.101562 158.480469 190.117188 157.988281 188.464844 C 157.492188 186.785156 158.480469 185.046875 160.136719 184.554688 C 160.164062 184.554688 163.589844 183.539062 168.644531 182.816406 C 168.121094 179.746094 167.570312 176.644531 167.019531 173.542969 C 161.90625 175.3125 158.945312 177.164062 158.945312 177.164062 C 157.464844 178.0625 155.488281 177.601562 154.589844 176.121094 C 153.6875 174.644531 154.152344 172.675781 155.632812 171.777344 C 155.664062 171.777344 159.4375 169.371094 165.886719 167.285156 C 165.59375 165.664062 165.304688 164.070312 165.015625 162.535156 C 164.667969 160.621094 164.316406 158.738281 163.96875 156.914062 C 160.976562 158.015625 158.21875 159.144531 155.925781 160.160156 C 155.171875 160.476562 154.675781 160.710938 154.414062 160.824219 L 154.269531 160.882812 C 153.71875 161.144531 153.195312 161.375 152.789062 161.578125 C 151.21875 162.332031 149.304688 161.636719 148.578125 160.070312 C 147.824219 158.507812 148.519531 156.625 150.089844 155.871094 C 150.609375 155.640625 151.132812 155.378906 151.628906 155.148438 C 151.683594 155.117188 151.742188 155.089844 151.800781 155.089844 C 152.585938 154.742188 153.136719 154.480469 153.398438 154.363281 C 156.070312 153.175781 159.292969 151.875 162.808594 150.597656 C 161.820312 145.558594 160.921875 141.152344 160.195312 137.878906 C 157.378906 125.480469 153.980469 118.640625 151.886719 115.339844 L 133.882812 133.96875 C 133.070312 134.808594 131.878906 135.097656 130.835938 134.835938 C 130.804688 134.835938 118.144531 131.59375 110.507812 131.96875 C 102.957031 132.316406 96.363281 134.953125 96.363281 134.953125 C 95.027344 135.503906 93.519531 135.039062 92.675781 133.96875 C 91.804688 132.984375 85.039062 125.566406 77.402344 123.308594 C 72.230469 121.769531 66.511719 121.046875 62.707031 120.699219 L 69.386719 144.804688 C 69.589844 145.5 69.53125 146.195312 69.269531 146.804688 C 68.980469 147.671875 67.554688 152.074219 65.640625 158.914062 C 73.191406 160.476562 77.253906 163.113281 77.253906 163.144531 C 78.738281 164.070312 79.203125 166.011719 78.273438 167.488281 C 77.34375 168.964844 75.398438 169.429688 73.917969 168.503906 C 73.886719 168.503906 70.519531 166.273438 63.984375 164.996094 C 63.78125 165.808594 63.550781 166.648438 63.34375 167.519531 C 62.472656 170.964844 61.777344 174.152344 61.226562 176.933594 C 66.511719 176.269531 70.488281 175.976562 70.519531 175.976562 C 72.261719 175.863281 73.800781 177.164062 73.917969 178.902344 C 74.03125 180.640625 72.726562 182.179688 70.984375 182.292969 C 70.953125 182.292969 66.046875 182.671875 60.09375 183.453125 C 59.859375 185.046875 59.6875 186.320312 59.597656 187.191406 C 60.703125 188.289062 62.621094 190.144531 65.117188 192.375 C 70.226562 190.347656 73.421875 189.972656 73.453125 189.972656 C 75.195312 189.769531 76.761719 191.015625 76.964844 192.753906 C 77.167969 194.492188 75.917969 196.054688 74.175781 196.257812 C 74.175781 196.257812 72.871094 196.402344 70.632812 197.097656 C 76.441406 201.792969 83.644531 206.804688 90.527344 209.441406 C 92.152344 210.078125 92.996094 211.902344 92.355469 213.527344 C 91.746094 215.148438 89.886719 215.988281 88.261719 215.351562 C 79.578125 212.046875 70.546875 205.355469 63.957031 199.765625 C 60.414062 201.472656 56.144531 204.023438 51.4375 207.789062 C 50.074219 208.890625 48.070312 208.660156 46.996094 207.296875 C 45.890625 205.933594 46.125 203.9375 47.488281 202.863281 C 51.585938 199.589844 55.476562 197.128906 58.902344 195.273438 C 56.347656 192.898438 54.632812 191.1875 54.167969 190.695312 C 53.472656 190.058594 53.066406 189.101562 53.152344 188.089844 C 53.152344 188.089844 53.269531 186.785156 53.589844 184.464844 C 49.320312 185.21875 45.167969 186.175781 42.292969 187.335938 C 40.664062 188 38.835938 187.21875 38.167969 185.625 C 37.5 184.003906 38.285156 182.179688 39.882812 181.511719 C 43.65625 179.945312 49.230469 178.757812 54.632812 177.890625 C 55.242188 174.527344 56.085938 170.472656 57.246094 165.984375 L 57.710938 164.214844 C 53.820312 163.953125 49.230469 164.128906 43.976562 164.996094 C 42.261719 165.289062 40.605469 164.128906 40.316406 162.390625 C 40.027344 160.679688 41.1875 159.027344 42.929688 158.738281 C 49.203125 157.695312 54.722656 157.609375 59.367188 158.015625 C 61.082031 151.902344 62.472656 147.441406 63.054688 145.613281 L 55.445312 118.121094 C 55.359375 117.832031 55.332031 117.511719 55.332031 117.195312 C 55.359375 115.457031 56.8125 114.066406 58.554688 114.121094 C 58.582031 114.121094 69.761719 114.46875 79.230469 117.25 C 86.664062 119.453125 93.257812 125.480469 96.101562 128.375 C 98.949219 127.449219 104.351562 125.972656 110.246094 125.683594 C 116.953125 125.363281 126.652344 127.390625 130.632812 128.289062 L 149.828125 108.414062 C 149.882812 108.355469 149.941406 108.269531 150 108.210938 C 151.25 106.964844 153.253906 106.964844 154.503906 108.210938 C 154.53125 108.242188 161.585938 115.28125 166.410156 136.488281 C 167.132812 139.648438 167.976562 143.820312 168.90625 148.628906 L 169.457031 148.453125 C 175.644531 146.6875 182.351562 145.441406 188.59375 145.644531 C 190.335938 145.703125 191.730469 147.152344 191.671875 148.890625 C 191.613281 150.628906 190.164062 152.019531 188.421875 151.960938 C 182.933594 151.816406 176.890625 152.945312 171.199219 154.566406 C 170.824219 154.683594 170.472656 154.769531 170.097656 154.886719 C 170.503906 156.972656 170.878906 159.144531 171.289062 161.375 L 172.070312 165.605469 C 176.746094 164.59375 182.234375 163.925781 188.332031 164.1875 C 190.074219 164.246094 191.441406 165.722656 191.382812 167.460938 C 191.324219 169.199219 189.84375 170.558594 188.101562 170.503906 C 182.46875 170.269531 177.445312 170.878906 173.203125 171.835938 C 173.8125 175.3125 174.421875 178.757812 175.035156 182.179688 C 178.113281 182.003906 181.453125 182.003906 184.789062 182.378906 C 186.535156 182.582031 187.78125 184.148438 187.609375 185.855469 C 187.40625 187.59375 185.835938 188.839844 184.121094 188.636719 C 181.394531 188.320312 178.691406 188.289062 176.136719 188.40625 C 177.039062 193.855469 177.910156 198.953125 178.664062 203.414062 Z M 178.664062 203.414062 " fill-opacity="1" fill-rule="nonzero"/></g><path fill="#000000" d="M 95 153.640625 C 98.046875 153.640625 100.546875 157.898438 100.546875 163.144531 C 100.546875 168.386719 98.078125 172.644531 95 172.644531 C 91.949219 172.644531 89.453125 168.386719 89.453125 163.144531 C 89.480469 157.871094 91.949219 153.640625 95 153.640625 Z M 95 153.640625 " fill-opacity="1" fill-rule="evenodd"/><path fill="#000000" d="M 127.523438 153.351562 C 130.574219 153.351562 133.070312 157.609375 133.070312 162.855469 C 133.070312 168.097656 130.601562 172.355469 127.523438 172.355469 C 124.476562 172.355469 121.976562 168.097656 121.976562 162.855469 C 121.976562 157.609375 124.476562 153.351562 127.523438 153.351562 Z M 127.523438 153.351562 " fill-opacity="1" fill-rule="evenodd"/><g fill="#cf4a47" fill-opacity="1"><g transform="translate(64.368178, 298.853269)"><g><path d="M 4.34375 -59.671875 L 26.109375 -59.671875 C 32.179688 -59.671875 37.097656 -58.101562 40.859375 -54.96875 C 44.617188 -51.832031 46.5 -47.273438 46.5 -41.296875 C 46.5 -35.316406 44.59375 -30.625 40.78125 -27.21875 C 36.976562 -23.820312 32.085938 -22.125 26.109375 -22.125 L 17.9375 -22.125 L 17.9375 0 L 4.34375 0 Z M 17.9375 -32.984375 L 21.765625 -32.984375 C 24.804688 -32.984375 27.300781 -33.597656 29.25 -34.828125 C 31.207031 -36.054688 32.1875 -38.066406 32.1875 -40.859375 C 32.1875 -43.703125 31.207031 -45.738281 29.25 -46.96875 C 27.300781 -48.207031 24.804688 -48.828125 21.765625 -48.828125 L 17.9375 -48.828125 Z M 17.9375 -32.984375 "/></g></g></g><g fill="#cf4a47" fill-opacity="1"><g transform="translate(117.35407, 298.853269)"><g><path d="M 38.484375 -59.671875 L 38.484375 -47.734375 L 17.9375 -47.734375 L 17.9375 -35.875 L 37.609375 -35.875 L 37.609375 -23.9375 L 17.9375 -23.9375 L 17.9375 -11.9375 L 38.484375 -11.9375 L 38.484375 0 L 4.34375 0 L 4.34375 -59.671875 Z M 38.484375 -59.671875 "/></g></g></g><g fill="#cf4a47" fill-opacity="1"><g transform="translate(164.12397, 298.853269)"><g><path d="M 0.578125 -47.734375 L 0.578125 -59.671875 L 42.53125 -59.671875 L 42.53125 -47.734375 L 28.359375 -47.734375 L 28.359375 0 L 14.75 0 L 14.75 -47.734375 Z M 0.578125 -47.734375 "/></g></g></g><g fill="#cf4a47" fill-opacity="1"><g transform="translate(212.050342, 298.853269)"><g><path d="M 26.328125 -60.75 C 29.554688 -60.75 32.710938 -60.28125 35.796875 -59.34375 C 38.890625 -58.40625 41.179688 -57.476562 42.671875 -56.5625 L 44.84375 -55.109375 L 39.34375 -44.265625 C 38.914062 -44.554688 38.3125 -44.929688 37.53125 -45.390625 C 36.757812 -45.847656 35.3125 -46.460938 33.1875 -47.234375 C 31.070312 -48.003906 29.097656 -48.390625 27.265625 -48.390625 C 25.003906 -48.390625 23.253906 -47.90625 22.015625 -46.9375 C 20.785156 -45.976562 20.171875 -44.675781 20.171875 -43.03125 C 20.171875 -42.21875 20.460938 -41.457031 21.046875 -40.75 C 21.628906 -40.050781 22.617188 -39.304688 24.015625 -38.515625 C 25.410156 -37.722656 26.640625 -37.082031 27.703125 -36.59375 C 28.765625 -36.113281 30.40625 -35.390625 32.625 -34.421875 C 36.476562 -32.785156 39.765625 -30.554688 42.484375 -27.734375 C 45.210938 -24.910156 46.578125 -21.71875 46.578125 -18.15625 C 46.578125 -14.726562 45.960938 -11.738281 44.734375 -9.1875 C 43.503906 -6.632812 41.816406 -4.632812 39.671875 -3.1875 C 37.523438 -1.738281 35.148438 -0.664062 32.546875 0.03125 C 29.941406 0.726562 27.117188 1.078125 24.078125 1.078125 C 21.472656 1.078125 18.914062 0.8125 16.40625 0.28125 C 13.90625 -0.238281 11.8125 -0.894531 10.125 -1.6875 C 8.4375 -2.488281 6.914062 -3.273438 5.5625 -4.046875 C 4.21875 -4.816406 3.234375 -5.46875 2.609375 -6 L 1.65625 -6.796875 L 8.46875 -18.234375 C 9.039062 -17.742188 9.832031 -17.125 10.84375 -16.375 C 11.863281 -15.632812 13.660156 -14.632812 16.234375 -13.375 C 18.816406 -12.125 21.097656 -11.5 23.078125 -11.5 C 28.816406 -11.5 31.6875 -13.453125 31.6875 -17.359375 C 31.6875 -18.179688 31.476562 -18.941406 31.0625 -19.640625 C 30.65625 -20.335938 29.929688 -21.035156 28.890625 -21.734375 C 27.859375 -22.429688 26.941406 -22.984375 26.140625 -23.390625 C 25.347656 -23.804688 24.046875 -24.4375 22.234375 -25.28125 C 20.429688 -26.125 19.097656 -26.765625 18.234375 -27.203125 C 14.609375 -28.984375 11.804688 -31.210938 9.828125 -33.890625 C 7.859375 -36.566406 6.875 -39.445312 6.875 -42.53125 C 6.875 -47.882812 8.847656 -52.257812 12.796875 -55.65625 C 16.753906 -59.050781 21.265625 -60.75 26.328125 -60.75 Z M 26.328125 -60.75 "/></g></g></g><g fill="#cf4a47" fill-opacity="1"><g transform="translate(265.469917, 298.853269)"><g><path d="M -2.171875 -59.671875 L 14.171875 -59.671875 L 26.609375 -40.578125 L 39.0625 -59.671875 L 55.40625 -59.671875 L 33.421875 -26.765625 L 33.421875 0 L 19.8125 0 L 19.8125 -26.765625 Z M -2.171875 -59.671875 "/></g></g></g></svg>